<?xml version="1.0" encoding="UTF-8"?>
<svg id="_Шар_2" data-name="Шар 2" xmlns="http://www.w3.org/2000/svg" viewBox="0 0 394.92 85.3">
  <defs>
    <style>
      .cls-1 {
        fill: #1565c0;
      }
    </style>
  </defs>
  <g id="_Шар_2-2" data-name=" Шар 2">
    <g>
      <g id="Logo">
        <g>
          <path class="cls-1" d="m0,85.3v-18.19h8.55V18.13H0V0h45.51v18.13h-8.55v48.98h8.55v18.19H0Z"/>
          <path class="cls-1" d="m55.92,18.58V0h74.04v18.58H55.92Zm22.24,66.72V23.02h29.57v62.28h-29.57Z"/>
          <path class="cls-1" d="m140.83,85.3V0h28.41v85.29h-28.41Zm32.91-25.58v-16.52h21.34v-26.16h-21.34V0h22.84c6.16,0,12.08,2.44,16.44,6.79l1.6,1.6c5.55,5.53,8.68,13.05,8.68,20.89v1.23c0,7.75-3.08,15.19-8.56,20.67l-4.68,4.68,16.13,29.44h-30.34l-12.08-25.58h-10.03Zm40-42.42l-4.24-4.93c-.94-1.1-.82-2.75.28-3.69l4.93-4.24c1.1-.94,2.75-.82,3.69.28l4.24,4.93c.94,1.1.82,2.75-.28,3.69l-4.93,4.24c-1.1.94-2.75.82-3.69-.28Zm1.59,37.4l-4.98-4.19c-1.11-.93-1.25-2.58-.32-3.69l4.19-4.98c.93-1.11,2.58-1.25,3.69-.32l4.98,4.19c1.11.93,1.25,2.58.32,3.69l-4.19,4.98c-.93,1.11-2.58,1.25-3.69.32Zm1.68-22.59l.02-6.51c0-1.45,1.18-2.62,2.63-2.61l6.51.02c1.45,0,2.62,1.18,2.61,2.63l-.02,6.51c0,1.45-1.18,2.62-2.63,2.61l-6.51-.02c-1.45,0-2.62-1.18-2.61-2.63Z"/>
        </g>
      </g>
      <g>
        <path class="cls-1" d="m248.6,85.26l-8.57-8.54v-25.69l8.57-8.54h5.67v42.77h-5.67Zm17.4-25.62v-8.61h-9.48v-8.54h15.18l8.54,8.54v8.61h-14.25Zm-9.48,25.62v-8.54h9.48v-6.25h14.25v6.25l-8.54,8.54h-15.18Z"/>
        <path class="cls-1" d="m290.85,85.26v-42.77h14.25v42.77h-14.25Zm16.5-12.83v-8.28h10.7v-13.12h-10.7v-8.54h16.28l8.57,8.54v12.83l-6.64,6.64,8.09,14.76h-15.21l-6.06-12.83h-5.03Z"/>
        <path class="cls-1" d="m342.9,85.26v-38.81l13.31,22.34v16.47h-13.31Zm25.4,0l-25.37-42.77h15.15l11.47,19.02,9.02-15.47v21.53l-10.28,17.69Zm12.38,0v-42.77h14.25v42.77h-14.25Z"/>
      </g>
    </g>
  </g>
</svg>